<svg width="20" height="20" xmlns="http://www.w3.org/2000/svg">
 <defs>
  <style type="text/css">.fil0 {fill:#F0F0F0} .fil1 {fill:#fff;fill-rule:nonzero}</style>
 </defs>
  <path stroke="#fff" class="fil1" d="m2.100109,1.431307c-0.263758,0 -0.477752,-0.320553 -0.477752,-0.715654c0,-0.3951 0.213994,-0.715654 0.477752,-0.715654l13.187885,0c0.263758,0 0.477748,0.320553 0.477748,0.715654c0,0.3951 -0.21399,0.715654 -0.477748,0.715654l-13.187885,0zm0,4.800851c-0.263758,0 -0.477752,-0.320553 -0.477752,-0.715654c0,-0.3951 0.213994,-0.715654 0.477752,-0.715654l13.187885,0c0.263758,0 0.477748,0.320553 0.477748,0.715654c0,0.3951 -0.21399,0.715654 -0.477748,0.715654l-13.187885,0zm0,4.793396c-0.263758,0 -0.477752,-0.313098 -0.477752,-0.708198c0,-0.3951 0.213994,-0.715658 0.477752,-0.715658l13.187885,0c0.263758,0 0.477748,0.320553 0.477748,0.715658c0,0.3951 -0.21399,0.708198 -0.477748,0.708198l-13.187885,0zm0,4.800851c-0.263758,0 -0.477752,-0.320553 -0.477752,-0.715654c0,-0.387649 0.213994,-0.708203 0.477752,-0.708203l13.187885,0c0.263758,0 0.477748,0.320553 0.477748,0.708203c0,0.3951 -0.21399,0.715654 -0.477748,0.715654l-13.187885,0zm-1.62236,0c-0.263758,0 -0.477748,-0.320553 -0.477748,-0.715654c0,-0.387649 0.21399,-0.708203 0.477748,-0.708203l0.009954,0c0.263758,0 0.477748,0.320553 0.477748,0.708203c0,0.3951 -0.21399,0.715654 -0.477748,0.715654l-0.009954,0zm0,-4.800851c-0.263758,0 -0.477748,-0.313098 -0.477748,-0.708198c0,-0.3951 0.21399,-0.715658 0.477748,-0.715658l0.009954,0c0.263758,0 0.477748,0.320553 0.477748,0.715658c0,0.3951 -0.21399,0.708198 -0.477748,0.708198l-0.009954,0zm0,-4.793396c-0.263758,0 -0.477748,-0.320553 -0.477748,-0.715654c0,-0.3951 0.21399,-0.715654 0.477748,-0.715654l0.009954,0c0.263758,0 0.477748,0.320553 0.477748,0.715654c0,0.3951 -0.21399,0.715654 -0.477748,0.715654l-0.009954,0zm0,-4.800851c-0.263758,0 -0.477748,-0.320553 -0.477748,-0.715654c0,-0.3951 0.21399,-0.715654 0.477748,-0.715654l0.009954,0c0.263758,0 0.477748,0.320553 0.477748,0.715654c0,0.3951 -0.21399,0.715654 -0.477748,0.715654l-0.009954,0z" id="svg_2"/>
</svg>